HIERARCHY
ROOT Hips
{
	OFFSET 0.000000 0.000000 0.000000
	CHANNELS 6 Xposition Yposition Zposition Yrotation Xrotation Zrotation
	JOINT Chest
	{
		OFFSET 0.000000 11.569106 -0.009283
		CHANNELS 6 Xposition Yposition Zposition Yrotation Xrotation Zrotation
		JOINT Chest2
		{
			OFFSET 0.000000 9.269641 0.016863
			CHANNELS 6 Xposition Yposition Zposition Yrotation Xrotation Zrotation
			JOINT Chest3
			{
				OFFSET 0.000000 8.374491 0.000000
				CHANNELS 6 Xposition Yposition Zposition Yrotation Xrotation Zrotation
				JOINT Chest4
				{
					OFFSET 0.000000 8.374493 0.000000
					CHANNELS 6 Xposition Yposition Zposition Yrotation Xrotation Zrotation
					JOINT Neck
					{
						OFFSET 0.000000 12.152554 0.000000
						CHANNELS 6 Xposition Yposition Zposition Yrotation Xrotation Zrotation
						JOINT Head
						{
							OFFSET 0.000000 7.802319 0.040100
							CHANNELS 6 Xposition Yposition Zposition Yrotation Xrotation Zrotation
							End Site
							{
								OFFSET 0.000000 14.853096 0.020945
							}
						}
					}
					JOINT RightCollar
					{
						OFFSET -2.894404 6.791374 0.000000
						CHANNELS 6 Xposition Yposition Zposition Yrotation Xrotation Zrotation
						JOINT RightShoulder
						{
							OFFSET -13.574684 0.000000 0.000000
							CHANNELS 6 Xposition Yposition Zposition Yrotation Xrotation Zrotation
							JOINT RightElbow
							{
								OFFSET -23.923903 0.000000 0.000000
								CHANNELS 6 Xposition Yposition Zposition Yrotation Xrotation Zrotation
								JOINT RightWrist
								{
									OFFSET -19.846718 0.000000 0.012765
									CHANNELS 6 Xposition Yposition Zposition Yrotation Xrotation Zrotation
									End Site
									{
										OFFSET -14.973145 0.000000 0.000000
									}
								}
							}
						}
					}
					JOINT LeftCollar
					{
						OFFSET 2.894404 6.791374 0.000000
						CHANNELS 6 Xposition Yposition Zposition Yrotation Xrotation Zrotation
						JOINT LeftShoulder
						{
							OFFSET 13.574684 0.000000 0.000000
							CHANNELS 6 Xposition Yposition Zposition Yrotation Xrotation Zrotation
							JOINT LeftElbow
							{
								OFFSET 23.923903 0.000000 0.000000
								CHANNELS 6 Xposition Yposition Zposition Yrotation Xrotation Zrotation
								JOINT LeftWrist
								{
									OFFSET 19.846718 0.000000 0.012765
									CHANNELS 6 Xposition Yposition Zposition Yrotation Xrotation Zrotation
									End Site
									{
										OFFSET 14.973145 0.000000 0.000000
									}
								}
							}
						}
					}
				}
			}
		}
	}
	JOINT RightHip
	{
		OFFSET -9.469263 0.045487 0.004642
		CHANNELS 6 Xposition Yposition Zposition Yrotation Xrotation Zrotation
		JOINT RightKnee
		{
			OFFSET 0.000000 -40.478676 0.002668
			CHANNELS 6 Xposition Yposition Zposition Yrotation Xrotation Zrotation
			JOINT RightAnkle
			{
				OFFSET 0.000000 -35.224068 0.049112
				CHANNELS 6 Xposition Yposition Zposition Yrotation Xrotation Zrotation
				JOINT RightToe
				{
					OFFSET 0.000000 -6.151390 12.539530
					CHANNELS 6 Xposition Yposition Zposition Yrotation Xrotation Zrotation
					End Site
					{
						OFFSET 0.000000 -1.291870 5.044995
					}
				}
			}
		}
	}
	JOINT LeftHip
	{
		OFFSET 9.469263 0.045487 0.004642
		CHANNELS 6 Xposition Yposition Zposition Yrotation Xrotation Zrotation
		JOINT LeftKnee
		{
			OFFSET 0.000000 -40.478676 0.002668
			CHANNELS 6 Xposition Yposition Zposition Yrotation Xrotation Zrotation
			JOINT LeftAnkle
			{
				OFFSET 0.000000 -35.224068 0.049112
				CHANNELS 6 Xposition Yposition Zposition Yrotation Xrotation Zrotation
				JOINT LeftToe
				{
					OFFSET 0.000000 -6.151390 12.539530
					CHANNELS 6 Xposition Yposition Zposition Yrotation Xrotation Zrotation
					End Site
					{
						OFFSET 0.000000 -1.291870 5.044995
					}
				}
			}
		}
	}
}
MOTION
Frames: 6
Frame Time: 0.016667
0.000000 81.649483 0.000000 0.000000 -5.826342 0.000000 0.000000 11.569102 -0.009284 0.000000 11.116423 0.000000 0.000000 9.269648 0.016862 0.000000 -5.290082 0.000000 0.000000 8.374502 -0.000000 0.000000 -0.000000 0.000000 0.000000 8.374500 0.000000 0.000000 -0.000000 0.000000 0.000000 12.152570 0.000001 0.000000 12.665070 0.000000 0.000000 7.802328 0.040102 0.000000 0.575450 0.000000 -2.894404 6.791382 0.000000 0.000000 -0.000000 0.000000 -13.574684 0.000008 -0.000000 0.000000 -0.000000 0.000000 -23.923903 0.000008 -0.000000 2.337306 -0.000000 -0.000000 -19.846724 -0.000004 0.012765 -2.337305 -0.000000 -0.000000 2.894404 6.791382 0.000000 0.000000 -0.000000 0.000000 13.574684 0.000008 -0.000000 0.000000 -0.000000 0.000000 23.923903 0.000008 -0.000000 -2.337306 -0.000000 0.000000 19.846724 -0.000004 0.012765 2.337305 -0.000000 0.000000 -9.469263 0.045486 0.004641 0.000000 8.578828 0.000000 0.000002 -40.478767 0.002667 -0.000000 1.905767 0.000000 0.000000 -35.223843 0.049101 -0.000000 -4.658249 0.000000 0.000001 -6.151383 12.539531 -0.000000 0.000002 0.000000 9.469263 0.045486 0.004641 0.000000 8.578828 0.000000 -0.000002 -40.478767 0.002667 -0.000000 1.905767 0.000000 -0.000001 -35.223843 0.049101 -0.000000 -4.658249 0.000000 -0.000001 -6.151383 12.539531 0.000000 0.000002 -0.000000 
0.000000 81.649483 0.000000 0.000000 -5.826342 0.000000 0.000000 11.569102 -0.009284 0.000000 11.116423 0.000000 0.000000 9.269648 0.016862 0.000000 -5.290082 0.000000 0.000000 8.374502 -0.000000 0.000000 -0.000000 0.000000 0.000000 8.374500 0.000000 0.000000 -0.000000 0.000000 0.000000 12.152570 0.000001 0.000000 12.665070 0.000000 0.000000 7.802328 0.040102 0.000000 0.575450 0.000000 -2.894404 6.791382 0.000000 0.000000 -0.000000 0.000000 -13.574684 0.000008 -0.000000 0.000000 -0.000000 0.000000 -23.923903 0.000008 -0.000000 2.337306 -0.000000 -0.000000 -19.846724 -0.000004 0.012765 -2.337305 -0.000000 -0.000000 2.894404 6.791382 0.000000 0.000000 -0.000000 0.000000 13.574684 0.000008 -0.000000 0.000000 -0.000000 0.000000 23.923903 0.000008 -0.000000 -2.337306 -0.000000 0.000000 19.846724 -0.000004 0.012765 2.337305 -0.000000 0.000000 -9.469263 0.045486 0.004641 0.000000 8.578828 0.000000 0.000002 -40.478767 0.002667 -0.000000 1.905767 0.000000 0.000000 -35.223843 0.049101 -0.000000 -4.658249 0.000000 0.000001 -6.151383 12.539531 -0.000000 0.000002 0.000000 9.469263 0.045486 0.004641 0.000000 8.578828 0.000000 -0.000002 -40.478767 0.002667 -0.000000 1.905767 0.000000 -0.000001 -35.223843 0.049101 -0.000000 -4.658249 0.000000 -0.000001 -6.151383 12.539531 0.000000 0.000002 -0.000000 
-13.107796 83.043709 0.434500 -113.456320 -7.536426 -0.337011 0.000000 11.569105 -0.009283 -0.127578 4.259317 -0.383599 -0.000000 9.269641 0.016863 -0.036801 1.886647 -0.165148 0.000000 8.374481 -0.000001 -0.036795 1.886647 -0.165148 0.000000 8.374493 -0.000000 -0.027086 1.414996 -0.123736 0.000000 12.152555 -0.000001 1.889553 18.110629 0.797135 -0.000001 7.802319 0.040092 3.211573 -2.550074 0.837628 -2.894403 6.791371 -0.000001 0.075074 -0.938853 11.684880 -13.574685 -0.000006 -0.000000 -1.437907 -1.212616 79.198161 -23.923908 0.000004 -0.000000 0.611618 5.070443 0.521467 -19.846727 0.000005 0.012765 4.385924 -2.623217 -2.489898 2.894404 6.791377 -0.000001 2.778786 -0.487638 -8.643481 13.574688 -0.000009 -0.000001 -3.983407 1.179395 -79.137345 23.923906 0.000003 0.000000 -1.875909 5.242141 -0.252542 19.846699 0.000003 0.012765 -8.478836 2.235491 6.966288 -9.469264 0.045495 0.004643 -3.705799 9.101640 1.378726 -0.000297 -40.478867 0.002645 -6.394095 4.051839 0.734161 0.000434 -35.223843 0.049063 9.389325 -5.081032 -2.602385 0.000004 -6.151396 12.539529 0.064173 0.061722 0.051715 9.469263 0.045489 0.004643 0.018750 10.151779 -2.363955 0.000251 -40.478752 0.002655 5.406837 1.611046 -0.066565 0.000397 -35.223873 0.049076 8.621272 -4.226183 1.657322 -0.000002 -6.151402 12.539528 -0.067141 0.058945 0.069062 
-13.086291 83.043854 0.456012 -113.401870 -7.541051 -0.339637 -0.000000 11.569112 -0.009283 -0.122259 4.265965 -0.387439 -0.000000 9.269652 0.016862 -0.034809 1.889474 -0.167462 0.000001 8.374489 0.000001 -0.034808 1.889473 -0.167462 0.000000 8.374484 -0.000000 -0.025587 1.417115 -0.125478 -0.000000 12.152557 -0.000001 1.890936 18.090111 0.828340 0.000002 7.802301 0.040102 3.203862 -2.588775 0.894189 -2.894405 6.791376 -0.000001 0.090387 -0.943575 11.690075 -13.574688 -0.000003 0.000000 -1.406978 -1.201634 79.191536 -23.923908 -0.000000 0.000001 0.623581 5.059535 0.520499 -19.846724 0.000002 0.012765 4.410507 -2.618904 -2.498468 2.894403 6.791378 -0.000001 2.763191 -0.477312 -8.653495 13.574680 -0.000003 -0.000001 -4.009699 1.212325 -79.123978 23.923910 0.000001 -0.000002 -1.829677 5.322909 -0.204701 19.846706 -0.000001 0.012765 -8.594764 2.217207 7.047438 -9.469263 0.045490 0.004642 -3.656484 9.062052 1.382589 -0.000300 -40.478867 0.002644 -6.488792 4.107410 0.722193 0.000435 -35.223831 0.049066 9.389273 -5.098070 -2.587488 0.000003 -6.151389 12.539528 0.062915 0.062891 0.045499 9.469263 0.045489 0.004643 0.061858 10.101466 -2.365089 0.000251 -40.478752 0.002655 5.379915 1.676371 -0.051428 0.000396 -35.223873 0.049074 8.577565 -4.236685 1.655410 -0.000003 -6.151389 12.539534 -0.064754 0.058352 0.052789 
-13.068831 83.044998 0.476871 -113.359243 -7.540873 -0.340483 0.000001 11.569093 -0.009282 -0.116341 4.267246 -0.395777 0.000000 9.269639 0.016863 -0.032556 1.890094 -0.170462 -0.000000 8.374481 -0.000001 -0.032554 1.890094 -0.170462 0.000000 8.374496 -0.000001 -0.023888 1.417580 -0.127734 0.000000 12.152553 0.000001 1.894057 18.069105 0.859324 -0.000001 7.802300 0.040096 3.199394 -2.628346 0.949768 -2.894403 6.791363 -0.000001 0.100668 -0.933500 11.694190 -13.574682 -0.000000 -0.000001 -1.386720 -1.203816 79.196242 -23.923903 0.000001 0.000000 0.634230 5.045533 0.510901 -19.846712 0.000003 0.012763 4.429235 -2.600547 -2.503233 2.894404 6.791375 -0.000000 2.750103 -0.448665 -8.663765 13.574684 -0.000007 -0.000001 -4.018730 1.242458 -79.119900 23.923901 0.000004 0.000001 -1.791073 5.396891 -0.154629 19.846722 -0.000001 0.012768 -8.682867 2.135912 7.108307 -9.469263 0.045479 0.004644 -3.620473 9.019477 1.390819 -0.000304 -40.478863 0.002644 -6.552470 4.165321 0.707718 0.000432 -35.223820 0.049066 9.338736 -5.119409 -2.570011 0.000003 -6.151396 12.539529 0.057490 0.061601 0.036459 9.469264 0.045478 0.004643 0.094277 10.052403 -2.378101 0.000250 -40.478760 0.002655 5.362709 1.730873 -0.035504 0.000398 -35.223866 0.049074 8.585905 -4.241700 1.657427 -0.000004 -6.151389 12.539527 -0.060659 0.053480 0.039527 
-13.050888 83.046326 0.494215 -113.329586 -7.533676 -0.341334 0.000000 11.569105 -0.009283 -0.108375 4.265404 -0.405084 -0.000000 9.269647 0.016864 -0.030067 1.889642 -0.174579 -0.000000 8.374481 -0.000001 -0.030062 1.889642 -0.174579 -0.000000 8.374496 0.000001 -0.022004 1.417240 -0.130829 -0.000000 12.152544 0.000002 1.898307 18.046176 0.890630 -0.000001 7.802317 0.040100 3.196901 -2.671470 1.005534 -2.894405 6.791366 -0.000001 0.100378 -0.925469 11.695248 -13.574687 0.000005 0.000001 -1.391076 -1.205512 79.204410 -23.923912 0.000001 0.000000 0.642723 5.058573 0.504188 -19.846693 0.000001 0.012764 4.452117 -2.582183 -2.510414 2.894403 6.791369 0.000000 2.735442 -0.429950 -8.675028 13.574687 -0.000002 -0.000002 -3.983824 1.267115 -79.121089 23.923908 0.000004 -0.000002 -1.744590 5.453838 -0.119856 19.846708 0.000001 0.012764 -8.729686 2.064875 7.137458 -9.469264 0.045483 0.004642 -3.597625 8.969371 1.378035 -0.000306 -40.478870 0.002644 -6.594528 4.229947 0.705420 0.000435 -35.223816 0.049065 9.404069 -5.140163 -2.556267 0.000002 -6.151397 12.539529 0.054873 0.059955 0.028360 9.469263 0.045487 0.004643 0.114503 9.997963 -2.382102 0.000248 -40.478756 0.002654 5.345321 1.788768 -0.029548 0.000400 -35.223869 0.049075 8.612879 -4.251919 1.657101 -0.000002 -6.151392 12.539532 -0.057628 0.049677 0.028719 
